<?xml version="1.0" encoding="UTF-8"?>
<!DOCTYPE svg PUBLIC "-//W3C//DTD SVG 1.1//EN" "http://www.w3.org/Graphics/SVG/1.1/DTD/svg11.dtd">
<svg version="1.1" xmlns="http://www.w3.org/2000/svg" xmlns:xlink="http://www.w3.org/1999/xlink" x="0" y="0" width="69" height="79" viewBox="0, 0, 69, 79">
  <g id="Layer_1">
    <path d="M39.728,34.789 C40.517,34 40.517,33.856 40.517,33.641 C40.517,33.211 40.231,32.78 39.657,32.78 C39.226,32.78 38.939,33.139 38.509,33.641 L22.083,51.933 C19.213,42.823 18.64,41.029 16.99,37.228 C16.201,35.578 14.623,31.991 8.31,31.991 C4.15,31.991 2.285,35.721 2.285,36.726 C2.285,36.797 2.285,37.443 3.146,37.443 C3.791,37.443 3.935,37.013 4.078,36.654 C5.154,33.856 7.45,33.569 7.88,33.569 C10.032,33.569 12.184,39.021 13.403,42.177 C15.699,47.844 17.994,56.165 17.994,56.38 C17.994,56.452 17.994,56.595 17.42,57.169 L0.922,75.604 C0.133,76.393 0.133,76.536 0.133,76.751 C0.133,77.182 0.563,77.612 0.994,77.612 C1.496,77.612 1.855,77.11 2.142,76.823 L18.568,58.388 C20.863,65.848 21.724,68.646 23.446,72.663 C24.378,74.815 25.956,78.401 32.34,78.401 C36.501,78.401 38.437,74.671 38.437,73.739 C38.437,73.38 38.294,72.95 37.576,72.95 C36.859,72.95 36.787,73.237 36.572,73.954 C35.927,75.675 34.133,76.823 32.771,76.823 C29.112,76.823 24.235,59.464 22.656,53.941 z" fill="#000000"/>
    <path d="M68.151,24.944 L66.444,24.944 C66.293,26.049 65.791,29.011 65.138,29.514 C64.737,29.815 60.87,29.815 60.167,29.815 L50.928,29.815 C56.201,25.145 57.958,23.739 60.971,21.379 C64.686,18.417 68.151,15.304 68.151,10.534 C68.151,4.458 62.829,0.742 56.401,0.742 C50.175,0.742 45.958,5.111 45.958,9.73 C45.958,12.291 48.117,12.542 48.619,12.542 C49.824,12.542 51.28,11.689 51.28,9.881 C51.28,8.977 50.928,7.22 48.317,7.22 C49.874,3.655 53.288,2.55 55.648,2.55 C60.669,2.55 63.28,6.467 63.28,10.534 C63.28,14.902 60.167,18.367 58.561,20.174 L46.46,32.125 C45.958,32.576 45.958,32.677 45.958,34.083 L66.645,34.083 z" fill="#000000"/>
  </g>
</svg>
