<svg xmlns="http://www.w3.org/2000/svg" xmlns:xlink="http://www.w3.org/1999/xlink" version="1.1" x="0px" y="0px" viewBox="0 0 100 71.427" enable-background="new 0 0 100 71.427" xml:space="preserve"><path d="M50.495,8.23C47.038,4.923,27.174-6.565,0,5.141c0,0.176,0,3.421,0,8.366v55.85h41.172c1.413,1.211,4.772,2.07,8.705,2.07  c3.925,0,7.292-0.859,8.71-2.07H100v-55.85c0-4.945,0-8.19,0-8.366C73.945-6.343,53.125,5.805,50.495,8.23z M46.803,65.359  c0-2.201-19.329-15.065-41.647-1.029V9.877c4.42-2.536,10.365-4.089,16.927-4.089c13.659,0,24.72,4.482,24.72,12.796V65.359z   M95.163,64.33c-22.318-14.036-41.635-1.172-41.635,1.029V18.585c0-8.314,11.062-12.796,24.707-12.796  c6.562,0,12.507,1.553,16.928,4.089V64.33z"></path></svg>