<?xml version="1.0" encoding="iso-8859-1"?>
<!-- Generator: Adobe Illustrator 16.0.0, SVG Export Plug-In . SVG Version: 6.00 Build 0)  -->
<!DOCTYPE svg PUBLIC "-//W3C//DTD SVG 1.1//EN" "http://www.w3.org/Graphics/SVG/1.1/DTD/svg11.dtd">
<svg version="1.1" id="Capa_1" xmlns="http://www.w3.org/2000/svg" xmlns:xlink="http://www.w3.org/1999/xlink" x="0px" y="0px"
	 width="508.708px" height="508.708px" viewBox="0 0 508.708 508.708" style="enable-background:new 0 0 508.708 508.708;"
	 xml:space="preserve">
<g>
	<path d="M129.879,356.161L356.16,129.88l22.625,22.625L152.504,378.786L129.879,356.161z M216.942,359.598
		c2.719,10.594,0.453,22.219-7.844,30.5l-45.267,45.281c-12.5,12.5-32.733,12.5-45.25,0l-45.25-45.281
		c-12.516-12.5-12.516-32.719,0-45.25l45.25-45.25c8.281-8.281,19.859-10.531,30.453-7.875l47.578-47.563
		c-37.469-26.594-89.734-23.359-123.281,10.188l-45.266,45.25c-37.422,37.438-37.422,98.344,0,135.781l45.266,45.25
		c37.422,37.438,98.328,37.438,135.767,0l45.25-45.25c33.562-33.563,36.75-85.875,10.141-123.344L216.942,359.598z M480.63,73.333
		l-45.25-45.266c-37.438-37.422-98.345-37.422-135.781,0l-45.25,45.266c-33.548,33.547-36.781,85.813-10.188,123.281l47.594-47.594
		c-2.688-10.578-0.438-22.156,7.845-30.438l45.25-45.25c12.5-12.5,32.75-12.516,45.25,0l45.281,45.25
		c12.5,12.516,12.469,32.766,0,45.25l-45.281,45.266c-8.281,8.297-19.906,10.547-30.5,7.844l-47.563,47.562
		c37.438,26.625,89.781,23.406,123.345-10.155l45.25-45.25C518.067,171.661,518.067,110.754,480.63,73.333z"/>
</g>
<g>
</g>
<g>
</g>
<g>
</g>
<g>
</g>
<g>
</g>
<g>
</g>
<g>
</g>
<g>
</g>
<g>
</g>
<g>
</g>
<g>
</g>
<g>
</g>
<g>
</g>
<g>
</g>
<g>
</g>
</svg>
