<svg xmlns="http://www.w3.org/2000/svg" width="21" height="16" viewBox="0 0 21 16">
    <g fill="none" fill-rule="evenodd">
        <g fill="#000" fill-rule="nonzero">
            <path d="M19.255 1c.164-.003.321.06.438.175.116.115.182.271.182.435v12.78c0 .164-.066.32-.182.435-.117.115-.274.178-.438.175H1.725c-.337 0-.61-.273-.61-.61V1.61c0-.337.273-.61.61-.61h17.53m0-.75H1.725c-.36 0-.705.144-.958.399-.254.255-.395.601-.392.961v12.78c-.003.36.138.706.392.961.253.255.598.399.958.399h17.53c.751 0 1.36-.609 1.36-1.36V1.61c0-.751-.609-1.36-1.36-1.36zM6.785 11.49l-.79 1.64c-.113.251 0 .546.25.66.066.03.137.048.21.05.197 0 .374-.119.45-.3l.94-2-1.06-.05zm4.06 0h-.94l-.75 1.64c-.057.12-.064.256-.02.38.046.125.14.226.26.28.066.03.137.048.21.05.199-.002.378-.119.46-.3l.94-2-.16-.05zm2.17 0l-.75 1.64c-.113.251 0 .546.25.66.066.03.137.048.21.05.197 0 .374-.119.45-.3l.94-2-1.1-.05zm-3.94-6c-.573-.727-1.58-.948-2.405-.527-.825.421-1.237 1.366-.985 2.257-.674-.06-1.323.27-1.672.85s-.337 1.309.032 1.877c.368.567 1.028.875 1.7.793h9.54c2.49 0 2.49-3.81.47-3.81.272-1.197-.118-2.448-1.022-3.278-.905-.83-2.185-1.112-3.354-.738-1.17.374-2.049 1.345-2.304 2.546v.03z" transform="translate(-273 -131) translate(273 131)"/>
        </g>
    </g>
</svg>
