<svg xmlns="http://www.w3.org/2000/svg" width="21" height="16" viewBox="0 0 21 16">
    <path d="M19.255 1c.164-.003.321.06.438.175.116.115.182.271.182.435v12.78c0 .164-.066.32-.182.435-.117.115-.274.178-.438.175H1.735c-.164.003-.321-.06-.438-.175-.116-.115-.182-.271-.182-.435V1.61c0-.164.066-.32.182-.435.117-.115.274-.178.438-.175h17.52m0-.75H1.735C.984.25.375.859.375 1.61v12.78c0 .751.609 1.36 1.36 1.36h17.52c.751 0 1.36-.609 1.36-1.36V1.61c0-.751-.609-1.36-1.36-1.36zm-5.7 8.37c.915.525 1.494 1.486 1.53 2.54v2h2.63v-2c0-1.43-2.34-2.27-4.16-2.54zm-5-6c1.449.011 2.615 1.191 2.61 2.64-.006 1.448-1.181 2.62-2.63 2.62-1.449 0-2.624-1.171-2.63-2.62 0-1.449 1.171-2.624 2.62-2.63l.03-.01zm3.94 5.25c1.387-.086 2.468-1.235 2.468-2.625s-1.081-2.54-2.468-2.625c-.297.006-.59.06-.87.16 1.16 1.442 1.16 3.498 0 4.94.27.097.553.151.84.16l.03-.01zm-3.94.66c-1.75 0-5.25.88-5.25 2.62v2h10.5v-2c-.03-1.73-3.53-2.61-5.28-2.61l.03-.01z"/>
</svg>
