<svg xmlns="http://www.w3.org/2000/svg" viewBox="0 0 100 105.36"><defs><style>.cls-1{fill:none;}.cls-2{fill:#e65300;}.cls-3{fill:#ac441e;}.cls-3,.cls-4,.cls-6{fill-rule:evenodd;}.cls-4{fill:#fed16d;}.cls-5{fill:#fff;}.cls-6{fill:#ffc557;}.cls-7{fill:#00758d;}</style></defs><title>cc-logo</title><g id="Layer_2" data-name="Layer 2"><g id="Layer_1-2" data-name="Layer 1"><circle class="cls-1" cx="50" cy="50" r="50"/><path class="cls-2" d="M86.52,39.07c5.77,4,11.25,10.22,11.07,13.55-.11,1.93-7.21,9-15.15,11.77,1.83,6.8,2,15.07-.23,17.5-1.26,1.34-10.37,2.18-18-.31A21.63,21.63,0,0,0,65,76c.27-9,12-15,12-30.92,0-15-14.86-25.93-27-25.93S23,30.08,23,45.07C23,61,34.72,66.94,35,76a19.89,19.89,0,0,0,1,6.17c-6.12,2.59-13.32,3.9-15.91,2.2-1.62-1.06-4.19-10.74-2.62-19-6.8-1.81-14.08-5.76-15-9-.56-1.85,3.7-10.92,10.21-16.24C8.62,34.41,5.59,26.71,6.9,23.65c.76-1.78,9.85-6,18.26-5.89.6-7,3.23-14.85,6.2-16.36,1.73-.87,11.4,1.74,17.77,7.23,5-5,12-9.3,15.27-8.54,1.89.44,7.61,8.66,9,17,7-.63,15.19.6,17.19,3.26C91.71,21.86,90.82,31.84,86.52,39.07Z"/><path class="cls-3" d="M59.55,55.82c5.82.59,11.75-4.12,17.73-.67,2.21,1.28,4,5,5.16,9.24a16.73,16.73,0,0,1-8.25,1C69.26,64.51,63.43,60,59.55,55.82Zm-23.18-6c-3.43,4.74-2.32,12.24-8.29,15.69-2.22,1.28-6.31,1-10.58-.15a16.79,16.79,0,0,1,3.3-7.62C24,53.89,30.85,51.12,36.37,49.82Zm.74-9.42c-5.67,1.43-9.64,7.88-16.43,6.68-2.52-.44-5.47-3.29-8-6.91a16.75,16.75,0,0,1,7.42-3.71C25,35.55,32.05,37.84,37.11,40.4Zm6.63-6.75c-5.27-2.55-12.46-.15-16.89-5.44-1.65-2-2.07-6-1.69-10.45a16.77,16.77,0,0,1,8.07,1.93C37.58,22.16,41.5,28.44,43.74,33.65Zm9.41-.91c-2.39-5.33-9.44-8.12-9.44-15,0-2.56,2.3-5.95,5.42-9.09a16.88,16.88,0,0,1,4.95,6.67C55.82,20,54.78,27.31,53.15,32.74ZM63.47,47.21c4.84-3.28,6.36-10.7,13.15-11.9,2.52-.45,6.27,1.22,9.9,3.76a16.71,16.71,0,0,1-5.71,6C76.5,47.63,69.1,47.88,63.47,47.21Zm9.89-30.16a16.7,16.7,0,0,1-.5,8.28C71.19,30.05,65.69,35,60.94,38.1c1.6-5.63-2-12.29,2.43-17.57C65,18.56,69,17.44,73.36,17.05Z"/><path class="cls-4" d="M39.85,85.91A5.43,5.43,0,0,1,37,83.76,15.1,15.1,0,0,1,35,76c-.27-9-12-15-12-30.92,0-15,14.86-25.93,27-25.93S77,30.08,77,45.07C77,61,65.28,66.94,65,76c-.12,3.86-.94,6.35-2.1,8a5.47,5.47,0,0,1-2.54,1.93,1.24,1.24,0,0,0-.27,0H39.85Z"/><path class="cls-5" d="M55.3,49c.4-.57,3.34.2,6-.72a8.51,8.51,0,0,0,2.13-1.07c-4.24-.5-7.48-1.53-7.64-2.49-.06-.7,2.69-2,4.17-4.43a8.73,8.73,0,0,0,.94-2.19c-3.57,2.34-6.71,3.64-7.45,3-.49-.5.77-3.25.34-6.07a8.57,8.57,0,0,0-.68-2.29c-1.23,4.1-2.81,7.11-3.78,7.09-.7-.06-1.5-3-3.64-4.87a9,9,0,0,0-2-1.31c1.68,3.93,2.42,7.25,1.66,7.86-.58.4-3.07-1.33-5.92-1.39a8.37,8.37,0,0,0-2.37.28c3.82,1.92,6.51,4,6.32,5-.18.68-3.2,1-5.42,2.74a8.62,8.62,0,0,0-1.64,1.73c4.16-1,7.55-1.12,8-.27.29.64-1.84,2.8-2.4,5.59a8.76,8.76,0,0,0-.14,2.38c2.56-3.42,5.06-5.72,6-5.37.64.3.39,3.33,1.76,5.82A8.94,8.94,0,0,0,51,59.89c-.24-4.27.21-7.64,1.13-8,.68-.19,2.43,2.29,5.09,3.33a8.8,8.8,0,0,0,2.32.55C56.62,52.7,54.8,49.84,55.3,49Z"/><path class="cls-6" d="M61.68,80.61a20,20,0,0,1-2.2-1.17,14.24,14.24,0,0,1-3.37-2.84c-3.24-3.81-4.77-11-5.1-16.71,4.08,4.2,11.65,4.4,14,10.89a4.11,4.11,0,0,1,.19.65l.36,1.38A11.36,11.36,0,0,0,65,76a21.42,21.42,0,0,1-.84,5.65A26.67,26.67,0,0,1,61.68,80.61ZM41.86,57.52c.42,5.84,6.09,10.86,3.73,17.35-.66,1.82-2.73,3.64-5.43,5.23-.87.51-1.8,1-2.77,1.45L36,82.17A19.58,19.58,0,0,1,35,76q0-.3,0-.6c0-.7,0-1.25.06-1.79a14.55,14.55,0,0,1,.11-1.71C35.75,67.18,38.84,61.57,41.86,57.52ZM70.75,29.18a39.26,39.26,0,0,1-9.81,8.92c1.42-5-1.25-10.78,1.2-15.71A30.6,30.6,0,0,1,70.75,29.18Zm-7.28,18c4.43-3,6.08-9.47,11.52-11.47a22.74,22.74,0,0,1,2,9.33c0,.53,0,1,0,1.55A38.81,38.81,0,0,1,63.47,47.21ZM53.15,32.74C51,28,45.28,25.3,44,20a22.13,22.13,0,0,1,11-.27A39.43,39.43,0,0,1,53.15,32.74Zm-9.41.91c-4.6-2.23-10.66-.68-15.08-3.77a30.42,30.42,0,0,1,8.37-7A40.18,40.18,0,0,1,43.74,33.65ZM37.11,40.4c-5,1.25-8.64,6.37-14,6.8C23,46.51,23,45.8,23,45.07a22.6,22.6,0,0,1,1.74-8.68A39.6,39.6,0,0,1,37.11,40.4Zm-.74,9.42c-3.08,4.26-2.5,10.75-6.68,14.52a42.45,42.45,0,0,1-5.14-9.78A40,40,0,0,1,36.37,49.82Zm23.18,6c5.25.54,10.59-3.24,16-1.46a41.44,41.44,0,0,1-5.07,9.76A38.6,38.6,0,0,1,59.55,55.82Z"/><path class="cls-7" d="M60.1,95v1.36a1.93,1.93,0,0,1,0,3.84l-6.66,1.74a2,2,0,0,1,.71,1.54,1.84,1.84,0,0,1-1.75,1.92H47.6a1.84,1.84,0,0,1-1.75-1.92,1.94,1.94,0,0,1,1-1.73l-7-1.55a1.93,1.93,0,0,1,0-3.84H56.13v-.41L39.9,95a1.93,1.93,0,0,1,0-3.84H56.13v-.41l-16.22-1a1.93,1.93,0,0,1,0-3.84H60.1a1.93,1.93,0,0,1,0,3.84h-.18v1.37h.18a1.93,1.93,0,0,1,0,3.84Z"/></g></g></svg>