<svg xmlns="http://www.w3.org/2000/svg" width="20" height="20" viewBox="0 0 20 20">
    <g fill="none" fill-rule="evenodd">
        <path d="M0 0L20 0 20 20 0 20z"/>
        <path fill="#177991" fill-opacity=".75" fill-rule="nonzero" d="M7.5 9.167H5.833v1.666H7.5V9.167zm3.333 0H9.167v1.666h1.666V9.167zm3.334 0H12.5v1.666h1.667V9.167zm1.666-5.834H15V1.667h-1.667v1.666H6.667V1.667H5v1.666h-.833c-.925 0-1.659.75-1.659 1.667L2.5 16.667c0 .916.742 1.666 1.667 1.666h11.666c.917 0 1.667-.75 1.667-1.666V5c0-.917-.75-1.667-1.667-1.667zm0 13.334H4.167V7.5h11.666v9.167z"/>
    </g>
</svg>
