<?xml version="1.0" encoding="UTF-8"?>
<!DOCTYPE svg PUBLIC "-//W3C//DTD SVG 1.1//EN" "http://www.w3.org/Graphics/SVG/1.1/DTD/svg11.dtd">
<svg version="1.1" xmlns="http://www.w3.org/2000/svg" xmlns:xlink="http://www.w3.org/1999/xlink" x="0" y="0" width="360" height="300" viewBox="-10, -86, 360, 300">
  <rect x="-6" y="-82" width="352" height="292" stroke="#000" fill="#fff" stroke-width="8px" rx="16px"/>
  <g id="Layer_1">
    <path d="M36.507,91.867 C50.693,106.266 70.601,113.573 89.447,111.21 C95.897,110.488 100.69,108.762 152.796,89.052 L199.178,71.496 L202.294,73.328 C204.068,74.364 207.482,75.35 209.935,75.521 C220.401,76.319 317.524,77.695 320.697,77.073 C324.854,76.286 328.051,74.003 330.87,69.706 C336.234,61.653 331.465,49.126 321.964,46.429 C317.853,45.253 212.505,42.885 207.016,43.743 C205.356,44.096 203.208,44.625 202.394,45.083 C201.314,45.593 186.955,39.913 152.171,25.181 C125.398,13.792 100.293,3.595 96.382,2.597 C87.779,0.267 78.909,0.024 69.581,1.879 C63.308,3.081 61.404,3.862 51.773,9.276 C39.804,15.91 35.727,19.559 29.717,29.041 C25.699,35.175 20.525,50.193 20.538,55.319 C20.637,65.531 28.537,83.659 36.507,91.867 z M40.273,83.938 C40.421,83.854 42.26,84.661 44.341,85.718 C56.153,91.573 74.281,94.262 87.713,92.037 C92.218,91.344 134.336,81.706 162.039,75.137 C168.332,73.632 173.43,72.606 173.367,72.836 C173.207,73.41 99.592,101.242 94.737,102.52 C78.902,106.872 59.941,102.228 46.522,90.692 C41.39,86.215 39.606,84.312 40.273,83.938 z M40.551,69.445 C49.228,71.734 63.192,73.665 74.441,74.12 C83.354,74.437 91.305,73.936 125.536,70.865 C141.684,69.437 155.368,68.33 155.907,68.414 C156.446,68.499 154.985,69.029 152.648,69.568 C150.31,70.108 135.756,73.449 120.303,77.101 C87.09,84.831 84.372,85.391 75.734,85.211 C67.635,85.116 60.5,83.8 52.596,80.98 C46.721,78.955 37.077,72.948 34.386,69.812 C33.648,68.871 32.835,67.972 32.592,67.721 C32.424,67.428 35.943,68.258 40.551,69.445 z M29.835,53.579 C31.413,51.723 43.186,48.492 53.339,47.046 C70.356,44.742 82.344,45.46 132.546,51.715 C179.482,57.579 184.598,58.287 180.675,58.458 C179.649,58.551 158.827,60.378 134.432,62.472 C110.077,64.64 86.127,66.484 81.316,66.477 C62.157,66.595 42.442,63.538 33.569,59.035 C29.332,56.961 28.256,55.435 29.835,53.579 z M36.815,39.483 C43.518,33.583 54.458,29.078 66.017,27.518 C78.031,25.897 85.663,27.224 121.437,37.039 C140.154,42.11 155.626,46.486 155.71,46.633 C155.837,46.852 140.814,45.128 122.326,42.836 C86.036,38.251 76.88,37.683 62.161,38.695 C51.893,39.432 38.038,41.604 35.742,42.896 C32.927,44.479 33.607,42.255 36.815,39.483 z M53.22,16.891 C62.301,11.203 69.315,8.906 79.17,8.304 C91.352,7.654 91.816,7.78 162.206,37.652 L178.35,44.557 L130.972,31.968 C89.479,20.912 82.599,19.357 75.958,19.409 C66.189,19.478 55.908,21.384 47.159,24.755 L40.208,27.501 L42.909,24.529 C44.423,22.902 49.05,19.526 53.22,16.891 z M201.934,60.452 C201.411,57.163 204.104,52.645 207.066,51.658 C208.452,51.169 234.039,51.311 264.077,51.856 C304.17,52.657 319.246,53.285 321.21,54.311 C324.316,55.955 326.213,59.925 325.51,63.13 C324.806,66.335 320.995,69.932 318.214,70.042 C307.28,70.475 210.095,67.972 207.538,67.279 C204.156,66.177 202.447,64.233 201.934,60.452 z" fill="#000000"/>
  </g>
</svg>
