<svg xmlns="http://www.w3.org/2000/svg" width="21" height="16" viewBox="0 0 21 16">
    <g fill="none" fill-rule="evenodd">
        <g fill="#000" fill-rule="nonzero">
            <path d="M19.255.25c.707 0 1.288.54 1.354 1.229l.006.131v12.78c0 .707-.54 1.288-1.229 1.354l-.13.006H1.725c-.36 0-.706-.144-.96-.399-.216-.219-.351-.504-.383-.808l-.008-.153V1.61C.372 1.25.513.904.767.649c.217-.219.502-.356.805-.39L1.725.25h17.53zM10 .999H1.725c-.303 0-.555.222-.602.512l-.008.099v12.78c0 .303.221.555.511.602l.1.008h8.273L10 10.75h2.349v-5.5H10L9.999.999zm9.256 0H10.75L10.75 4.5h2.35v7h-2.35l-.001 3.5h8.506c.13.002.258-.038.363-.113l.075-.062c.093-.092.154-.21.174-.338l.008-.097V1.61c0-.164-.066-.32-.182-.435-.093-.092-.213-.15-.34-.169L19.254 1zM5.85 8.25c.828 0 1.5.672 1.5 1.5s-.672 1.5-1.5 1.5-1.5-.672-1.5-1.5.672-1.5 1.5-1.5zm0 .75c-.414 0-.75.336-.75.75s.336.75.75.75.75-.336.75-.75S6.264 9 5.85 9zm10.74-2.5c.828 0 1.5.672 1.5 1.5s-.672 1.5-1.5 1.5-1.5-.672-1.5-1.5.672-1.5 1.5-1.5zm0 .75c-.414 0-.75.336-.75.75s.336.75.75.75.75-.336.75-.75-.336-.75-.75-.75zM4.35 2.75c.828 0 1.5.672 1.5 1.5s-.672 1.5-1.5 1.5-1.5-.672-1.5-1.5.672-1.5 1.5-1.5zm0 .75c-.414 0-.75.336-.75.75s.336.75.75.75.75-.336.75-.75-.336-.75-.75-.75z" transform="translate(-273 -87) translate(273 87)"/>
        </g>
    </g>
</svg>
