<?xml version="1.0" encoding="UTF-8"?>
<!DOCTYPE svg PUBLIC "-//W3C//DTD SVG 1.1//EN" "http://www.w3.org/Graphics/SVG/1.1/DTD/svg11.dtd">
<svg version="1.1" xmlns="http://www.w3.org/2000/svg" xmlns:xlink="http://www.w3.org/1999/xlink"
     x="0" y="0" width="160" height="160" viewBox="0, 0, 160, 165">
  <g id="Layer_1">
    <g>
      <path d="M79.5,164.5 C35.87,164.5 0.5,129.13 0.5,85.5 C0.5,41.87 35.87,6.5 79.5,6.5 C123.13,6.5 158.5,41.87 158.5,85.5 C158.5,129.13 123.13,164.5 79.5,164.5 z" fill="#E8E8E8"/>
      <path d="M79.5,164.5 C35.87,164.5 0.5,129.13 0.5,85.5 C0.5,41.87 35.87,6.5 79.5,6.5 C123.13,6.5 158.5,41.87 158.5,85.5 C158.5,129.13 123.13,164.5 79.5,164.5 z" fill-opacity="0" stroke="#000000" stroke-width="1"/>
    </g>
    <text transform="matrix(1, 0, 0, 1, 79, 85)">
      <tspan x="-40.032" y="52" font-family="HelveticaNeue" font-size="144" fill="#FFFFFF">?</tspan>
    </text>
  </g>
</svg>
